HIERARCHY
ROOT Hips
{
	OFFSET 0.000000 0.000000 0.000000
	CHANNELS 6 Xposition Yposition Zposition Xrotation Yrotation Zrotation
	JOINT LeftUpLeg_virtual
	{
		OFFSET 0.000000 0.000000 0.000000
		CHANNELS 3 Xrotation Yrotation Zrotation
		JOINT LeftUpLeg
		{
			OFFSET 13.026900 -6.336304 -1.092800
			CHANNELS 3 Xrotation Yrotation Zrotation
			JOINT LeftLeg
			{
				OFFSET 0.524474 -46.096886 9.782700
				CHANNELS 3 Xrotation Yrotation Zrotation
				JOINT LeftFoot
				{
					OFFSET -0.524474 -53.427422 -12.948200
					CHANNELS 3 Xrotation Yrotation Zrotation
					JOINT LeftToeBase
					{
						OFFSET 0.192200 -14.009700 16.364100
						CHANNELS 3 Xrotation Yrotation Zrotation
						JOINT LeftToe_End
						{
							OFFSET -1.784700 -0.561700 9.474800
							CHANNELS 3 Xrotation Yrotation Zrotation
							End Site
							{
								OFFSET 0 0 0
							}
						}
					}
				}
			}
		}
	}
	JOINT RightUpLeg_virtual
	{
		OFFSET 0.000000 0.000000 0.000000
		CHANNELS 3 Xrotation Yrotation Zrotation
		JOINT RightUpLeg
		{
			OFFSET -12.883000 -6.336304 -1.092800
			CHANNELS 3 Xrotation Yrotation Zrotation
			JOINT RightLeg
			{
				OFFSET -0.524587 -46.096825 9.782800
				CHANNELS 3 Xrotation Yrotation Zrotation
				JOINT RightFoot
				{
					OFFSET 0.524587 -53.427383 -12.948300
					CHANNELS 3 Xrotation Yrotation Zrotation
					JOINT RightToeBase
					{
						OFFSET -0.192200 -14.009700 16.364100
						CHANNELS 3 Xrotation Yrotation Zrotation
						JOINT RightToe_End
						{
							OFFSET 1.784700 -0.561700 9.474800
							CHANNELS 3 Xrotation Yrotation Zrotation
							End Site
							{
								OFFSET 0 0 0
							}
						}
					}
				}
			}
		}
	}
	JOINT Spine_virtual
	{
		OFFSET 0.000000 0.000000 0.000000
		CHANNELS 3 Xrotation Yrotation Zrotation
		JOINT Spine
		{
			OFFSET 0.072000 7.257294 -0.789700
			CHANNELS 3 Xrotation Yrotation Zrotation
			JOINT Spine1
			{
				OFFSET 0.000000 12.508769 -0.658067
				CHANNELS 3 Xrotation Yrotation Zrotation
				JOINT Spine1_split
				{
					OFFSET 0.000000 12.508769 -0.658067
					CHANNELS 3 Xrotation Yrotation Zrotation
					JOINT Spine2
					{
						OFFSET 0.000000 12.508769 -0.658067
						CHANNELS 3 Xrotation Yrotation Zrotation
						JOINT Neck_virtual
						{
							OFFSET 0.000000 0.000000 0.000000
							CHANNELS 3 Xrotation Yrotation Zrotation
							JOINT Neck
							{
								OFFSET 0.000000 14.033295 7.520400
								CHANNELS 3 Xrotation Yrotation Zrotation
								JOINT Head
								{
									OFFSET 0.000000 8.198502 5.703100
									CHANNELS 3 Xrotation Yrotation Zrotation
									JOINT HeadTop_End
									{
										OFFSET 0.000000 17.760803 13.332701
										CHANNELS 3 Xrotation Yrotation Zrotation
										End Site
										{
											OFFSET 0 0 0
										}
									}
								}
							}
						}
						JOINT LeftShoulder_virtual
						{
							OFFSET 0.000000 0.000000 0.000000
							CHANNELS 3 Xrotation Yrotation Zrotation
							JOINT LeftShoulder
							{
								OFFSET 6.292450 5.785301 -0.669000
								CHANNELS 3 Xrotation Yrotation Zrotation
								JOINT LeftShoulder_split
								{
									OFFSET 6.292450 5.785301 -0.669000
									CHANNELS 3 Xrotation Yrotation Zrotation
									JOINT LeftArm
									{
										OFFSET 13.907140 -6.093903 1.965100
										CHANNELS 3 Xrotation Yrotation Zrotation
										JOINT LeftForeArm
										{
											OFFSET 34.140198 0.000000 0.000000
											CHANNELS 3 Xrotation Yrotation Zrotation
											JOINT LeftHand
											{
												OFFSET 40.960209 0.000000 0.000000
												CHANNELS 3 Xrotation Yrotation Zrotation
												End Site
												{
													OFFSET 0 0 0
												}
											}
										}
									}
								}
							}
						}
						JOINT RightShoulder_virtual
						{
							OFFSET 0.000000 0.000000 0.000000
							CHANNELS 3 Xrotation Yrotation Zrotation
							JOINT RightShoulder
							{
								OFFSET -6.292450 5.785301 -0.669000
								CHANNELS 3 Xrotation Yrotation Zrotation
								JOINT RightShoulder_split
								{
									OFFSET -6.292450 5.785301 -0.669000
									CHANNELS 3 Xrotation Yrotation Zrotation
									JOINT RightArm
									{
										OFFSET -13.907140 -6.093903 1.965100
										CHANNELS 3 Xrotation Yrotation Zrotation
										JOINT RightForeArm
										{
											OFFSET -34.140198 0.000000 0.000000
											CHANNELS 3 Xrotation Yrotation Zrotation
											JOINT RightHand
											{
												OFFSET -40.960209 0.000000 0.000000
												CHANNELS 3 Xrotation Yrotation Zrotation
												End Site
												{
													OFFSET 0 0 0
												}
											}
										}
									}
								}
							}
						}
					}
				}
			}
		}
	}
}
MOTION
Frames: 4
Frame Time: 0.03333333
-160.829926 42.378891 9.039989 0.000000 0.000000 0.000000 5.082422 2.504443 -41.538728 -112.258585 -2.783552 9.191567 23.754408 -0.313827 3.555591 28.913051 -13.529312 32.516130 -8.731669 -0.000002 -0.000001 0.000000 0.000000 0.000000 5.082422 2.504443 -41.538728 -105.920443 -15.003069 -27.336323 118.905725 7.924772 -0.410310 15.709515 29.694466 5.021415 -39.838748 0.000004 0.000005 0.000000 0.000000 0.000000 5.082422 2.504443 -41.538728 26.398095 -4.340073 -13.131121 4.544298 1.067065 -3.000532 0.000000 0.000000 0.000000 0.000000 0.000000 0.000000 4.469507 1.152593 -3.102260 -2.049341 1.250610 0.923235 -3.430773 19.437303 0.140219 0.000000 0.000000 0.000000 4.469507 1.152593 -3.102260 -0.738569 -20.006922 -16.433085 0.000000 0.000000 0.000000 -50.129258 35.122270 -5.603039 0.000047 -67.864275 0.000049 0.000000 0.000000 0.000000 4.469507 1.152593 -3.102260 0.572093 17.177627 -1.647710 0.000000 0.000000 0.000000 -40.220689 -36.620551 -13.906597 0.000014 47.792849 -0.000013 0.000000 0.000000 0.000000 
-159.005615 45.918831 7.244938 0.000000 0.000000 0.000000 6.499695 1.783608 -43.707487 -115.950439 -3.526714 8.875252 33.476267 1.675662 2.106889 23.868424 -13.126252 35.952965 -9.565974 -0.000024 -0.000005 0.000000 0.000000 0.000000 6.499695 1.783608 -43.707487 -100.609766 -19.572669 -24.469979 113.353246 7.784138 -0.452219 10.061650 30.118443 7.397109 -37.575487 -0.000003 -0.000005 0.000000 0.000000 0.000000 6.499695 1.783608 -43.707487 25.384562 -5.535540 -13.382065 4.429980 0.562699 -3.087445 0.000000 0.000000 0.000000 0.000000 0.000000 0.000000 4.399102 0.647813 -3.172078 -1.978531 1.469746 0.973266 -2.886833 20.911695 0.815763 0.000000 0.000000 0.000000 4.399102 0.647813 -3.172078 0.465869 -18.467177 -14.809597 0.000000 0.000000 0.000000 -53.117336 32.371040 -6.476306 0.000012 -65.498249 0.000001 0.000000 0.000000 0.000000 4.399102 0.647813 -3.172078 0.420641 16.309599 -2.316457 0.000000 0.000000 0.000000 -40.918564 -42.271146 -17.103692 0.000009 49.709799 -0.000017 0.000000 0.000000 0.000000 
-157.183655 49.991661 6.124714 0.000000 0.000000 0.000000 8.218037 0.478902 -47.353411 -124.750455 -6.155656 9.158663 54.104182 6.106716 -0.120458 16.613499 -11.907192 37.375731 -11.086840 -0.000011 0.000002 0.000000 0.000000 0.000000 8.218037 0.478902 -47.353411 -94.673758 -24.974781 -20.685634 106.571585 7.862547 -0.152696 6.036300 29.456058 9.756773 -35.945496 -0.000007 -0.000004 0.000000 0.000000 0.000000 8.218037 0.478902 -47.353411 24.894549 -6.418807 -12.682090 4.340287 -0.053007 -2.926338 0.000000 0.000000 0.000000 0.000000 0.000000 0.000000 4.326366 0.001580 -3.071865 -1.907605 1.651351 1.046739 -3.037805 21.624703 2.047961 0.000000 0.000000 0.000000 4.326366 0.001580 -3.071865 1.528354 -17.124223 -13.055610 0.000000 0.000000 0.000000 -56.910963 30.147690 -5.988704 0.000021 -62.567320 0.000017 0.000000 0.000000 0.000000 4.326366 0.001580 -3.071865 -0.280806 13.602715 -1.925095 0.000000 0.000000 0.000000 -41.602327 -46.076535 -18.868466 0.000000 51.752152 0.000010 0.000000 0.000000 0.000000 
-155.789398 54.043144 4.351551 0.000000 0.000000 0.000000 10.132919 -0.960821 -51.366670 -131.101028 -10.001998 10.836303 73.719400 9.176928 -2.898764 10.776442 -8.164569 29.713007 -15.404809 0.000003 0.000009 0.000000 0.000000 0.000000 10.132919 -0.960821 -51.366670 -90.792906 -30.744321 -16.810042 99.558880 7.239029 -0.162439 5.481995 28.662182 11.032752 -35.515642 -0.000005 -0.000000 0.000000 0.000000 0.000000 10.132919 -0.960821 -51.366670 24.692872 -7.271343 -11.520215 4.268273 -0.667206 -2.683765 0.000000 0.000000 0.000000 0.000000 0.000000 0.000000 4.264236 -0.670731 -2.969969 -1.865160 1.816232 1.098596 -3.836372 21.972993 3.501176 0.000000 0.000000 0.000000 4.264236 -0.670731 -2.969969 2.392734 -16.120993 -11.191420 0.000000 0.000000 0.000000 -60.835067 28.365555 -4.762355 0.000040 -59.974320 0.000038 0.000000 0.000000 0.000000 4.264236 -0.670731 -2.969969 -0.885417 10.812401 -1.433142 0.000000 0.000000 0.000000 -42.789622 -50.514395 -20.264720 -0.000001 53.767959 -0.000011 0.000000 0.000000 0.000000 
